# Blender 5.0.1
# www.blender.org
mtllib 27.mtl
o cpit_x_dials_lit_lhd
v 0.361419 -0.052473 0.690520
v 0.336347 -0.052473 0.690520
v 0.336857 0.073277 0.698189
v 0.382695 -0.052473 0.690520
v 0.396328 -0.052473 0.690520
v 0.405030 -0.052473 0.690520
v 0.411515 -0.052473 0.690520
v 0.418494 -0.052473 0.690520
v 0.428682 -0.052473 0.690520
v 0.440638 -0.052473 0.690520
v 0.452921 -0.052473 0.690520
v 0.464091 -0.052473 0.690520
v 0.472707 -0.052471 0.690520
v 0.479384 -0.052399 0.690524
v 0.484735 -0.052184 0.690538
v 0.489373 -0.051752 0.690565
v 0.493914 -0.051034 0.690610
v 0.498210 -0.049891 0.690682
v 0.502117 -0.048189 0.690788
v 0.505490 -0.045792 0.690938
v 0.508183 -0.042565 0.691139
v 0.510167 -0.038707 0.691379
v 0.511411 -0.034420 0.691646
v 0.511888 -0.029906 0.691926
v 0.351735 0.073150 0.698181
v 0.366289 0.072709 0.698154
v 0.380199 0.071888 0.698105
v 0.393141 0.070624 0.698029
v 0.404792 0.068852 0.697924
v 0.415489 0.066498 0.697783
v 0.425565 0.063487 0.697604
v 0.435357 0.059745 0.697381
v 0.445199 0.055198 0.697111
v 0.454973 0.049619 0.696778
v 0.464561 0.042782 0.696367
v 0.473844 0.034461 0.695865
v 0.482705 0.024429 0.695256
v 0.490830 0.013617 0.694597
v 0.497905 0.002951 0.693946
v 0.503616 -0.006639 0.693359
v 0.507650 -0.014226 0.692894
v 0.510227 -0.020303 0.692520
v 0.511566 -0.025365 0.692208
v 0.311327 -0.052534 0.692518
v 0.290205 -0.052534 0.690518
v 0.276829 -0.052534 0.692518
v 0.268434 -0.052534 0.690518
v 0.262257 -0.052473 0.690520
v 0.255533 -0.052473 0.690520
v 0.245499 -0.052473 0.690520
v 0.233616 -0.052473 0.690520
v 0.221345 -0.052473 0.690520
v 0.210148 -0.052473 0.690520
v 0.201488 -0.052471 0.690520
v 0.194753 -0.052400 0.690524
v 0.189335 -0.052184 0.690538
v 0.184625 -0.051752 0.690565
v 0.180014 -0.051034 0.690610
v 0.175651 -0.049891 0.690682
v 0.171686 -0.048190 0.690788
v 0.168269 -0.045793 0.690938
v 0.165549 -0.042565 0.691139
v 0.163552 -0.038707 0.691379
v 0.162303 -0.034421 0.691646
v 0.161827 -0.029906 0.691926
v 0.162148 -0.025365 0.692208
v 0.163487 -0.020304 0.692520
v 0.166064 -0.014226 0.692894
v 0.170098 -0.006639 0.693359
v 0.175810 0.002951 0.693946
v 0.182884 0.013617 0.694597
v 0.191009 0.024429 0.695256
v 0.199870 0.034461 0.695865
v 0.209153 0.042782 0.696367
v 0.218741 0.049619 0.696778
v 0.228515 0.055198 0.697111
v 0.238357 0.059745 0.697381
v 0.248149 0.063487 0.697604
v 0.258226 0.066498 0.697784
v 0.268922 0.068852 0.697924
v 0.280573 0.070624 0.698029
v 0.293515 0.071888 0.698105
v 0.307425 0.072709 0.698154
v 0.321980 0.073151 0.698181
vn -0.0000 0.0609 -0.9981
vn -0.0001 0.0356 -0.9994
vn 0.0001 0.0609 -0.9981
vn 0.0001 0.0610 -0.9981
vn 0.0002 0.0612 -0.9981
vn 0.0003 0.0613 -0.9981
vn 0.0004 0.0614 -0.9981
vn 0.0005 0.0615 -0.9981
vn 0.0006 0.0616 -0.9981
vn 0.0007 0.0617 -0.9981
vn 0.0007 0.0618 -0.9981
vn 0.0008 0.0619 -0.9981
vn -0.0000 0.0602 -0.9982
vn -0.0000 0.0597 -0.9982
vn -0.0000 0.0595 -0.9982
vn -0.0000 0.0592 -0.9982
vn -0.0000 0.0591 -0.9983
vn -0.0000 0.0593 -0.9982
vn 0.0001 0.0600 -0.9982
vn 0.0002 0.0605 -0.9982
vn 0.0003 0.0608 -0.9981
vn 0.0004 0.0611 -0.9981
vn 0.0004 0.0612 -0.9981
vn 0.0005 0.0613 -0.9981
vn 0.0006 0.0615 -0.9981
vn 0.0013 -0.9999 -0.0139
vn -0.0000 -0.0213 -0.9998
vn -0.0000 -1.0000 0.0001
vn -0.0000 -0.0445 -0.9990
vn -0.0000 -0.0303 0.9995
vn 0.0001 0.0694 -0.9976
vn -0.0000 -0.0000 -0.0000
vn -0.0000 -0.0000 -1.0000
vn -0.0000 0.0625 -0.9980
vn -0.0000 0.0630 -0.9980
vn -0.0000 0.0623 -0.9981
vn -0.0000 0.0626 -0.9980
vn -0.0000 0.0629 -0.9980
vn -0.0000 0.0624 -0.9980
vn -0.0000 0.0622 -0.9981
vn -0.0000 0.0621 -0.9981
vn -0.0000 0.0620 -0.9981
vn -0.0000 0.0619 -0.9981
vn -0.0001 0.0617 -0.9981
vn -0.0001 0.0616 -0.9981
vn -0.0001 0.0614 -0.9981
vn -0.0002 0.0612 -0.9981
vn -0.0002 0.0611 -0.9981
vn -0.0002 0.0610 -0.9981
vn -0.0003 0.0609 -0.9981
vn -0.0004 0.0608 -0.9981
vn -0.0004 0.0607 -0.9982
vn -0.0005 0.0606 -0.9982
vn -0.0003 0.0607 -0.9982
vn -0.0003 0.0608 -0.9982
vn -0.0002 0.0608 -0.9981
vn -0.0001 0.0609 -0.9981
vt 0.430425 0.642434
vt 0.501428 0.642434
vt 0.499985 0.998561
vt 0.370171 0.642434
vt 0.331563 0.642434
vt 0.306918 0.642434
vt 0.288554 0.642434
vt 0.268786 0.642434
vt 0.239934 0.642434
vt 0.206075 0.642434
vt 0.171289 0.642434
vt 0.139656 0.642434
vt 0.115254 0.642434
vt 0.096345 0.642637
vt 0.081191 0.643248
vt 0.068054 0.644470
vt 0.055196 0.646506
vt 0.043029 0.649742
vt 0.031964 0.654562
vt 0.022412 0.661350
vt 0.014786 0.670491
vt 0.009169 0.681417
vt 0.005644 0.693557
vt 0.004295 0.706341
vt 0.457851 0.998205
vt 0.416632 0.996956
vt 0.377239 0.994633
vt 0.340587 0.991054
vt 0.307590 0.986035
vt 0.277297 0.979368
vt 0.248761 0.970840
vt 0.221031 0.960242
vt 0.193159 0.947362
vt 0.165479 0.931560
vt 0.138327 0.912196
vt 0.112037 0.888630
vt 0.086943 0.860221
vt 0.063934 0.829598
vt 0.043899 0.799392
vt 0.027724 0.772232
vt 0.016299 0.750746
vt 0.009000 0.733536
vt 0.005207 0.719201
vt 0.572287 0.642434
vt 0.632105 0.642433
vt 0.669988 0.642433
vt 0.693762 0.642433
vt 0.711255 0.642433
vt 0.730297 0.642433
vt 0.758714 0.642433
vt 0.792368 0.642433
vt 0.827119 0.642433
vt 0.858828 0.642433
vt 0.883356 0.642433
vt 0.902429 0.642636
vt 0.917772 0.643247
vt 0.931110 0.644469
vt 0.944170 0.646506
vt 0.956526 0.649741
vt 0.967755 0.654561
vt 0.977433 0.661349
vt 0.985134 0.670491
vt 0.990789 0.681416
vt 0.994327 0.693556
vt 0.995675 0.706341
vt 0.994764 0.719200
vt 0.990970 0.733535
vt 0.983672 0.750746
vt 0.972246 0.772231
vt 0.956072 0.799392
vt 0.936036 0.829598
vt 0.913027 0.860221
vt 0.887933 0.888630
vt 0.861643 0.912196
vt 0.834490 0.931560
vt 0.806811 0.947362
vt 0.778939 0.960242
vt 0.751209 0.970840
vt 0.722673 0.979368
vt 0.692380 0.986035
vt 0.659382 0.991054
vt 0.622730 0.994633
vt 0.583338 0.996956
vt 0.542118 0.998205
s 1
usemtl nsx_cpit_main_lit
f 1/1/1 2/2/2 3/3/3
f 4/4/1 1/1/1 3/3/3
f 5/5/1 4/4/1 3/3/3
f 6/6/1 5/5/1 3/3/3
f 7/7/1 6/6/1 3/3/3
f 8/8/1 7/7/1 3/3/3
f 9/9/1 8/8/1 3/3/3
f 10/10/1 9/9/1 3/3/3
f 11/11/1 10/10/1 3/3/3
f 12/12/1 11/11/1 3/3/3
f 13/13/1 12/12/1 3/3/3
f 14/14/3 13/13/1 3/3/3
f 15/15/4 14/14/3 3/3/3
f 16/16/5 15/15/4 3/3/3
f 17/17/6 16/16/5 3/3/3
f 18/18/7 17/17/6 3/3/3
f 19/19/8 18/18/7 3/3/3
f 20/20/9 19/19/8 3/3/3
f 21/21/10 20/20/9 3/3/3
f 22/22/11 21/21/10 3/3/3
f 23/23/12 22/22/11 3/3/3
f 24/24/12 23/23/12 3/3/3
f 3/3/3 25/25/13 26/26/14
f 26/26/14 27/27/15 28/28/16
f 3/3/3 26/26/14 28/28/16
f 3/3/3 28/28/16 29/29/17
f 3/3/3 29/29/17 30/30/18
f 3/3/3 30/30/18 31/31/18
f 3/3/3 31/31/18 32/32/18
f 3/3/3 32/32/18 33/33/14
f 3/3/3 33/33/14 34/34/19
f 3/3/3 34/34/19 35/35/20
f 3/3/3 35/35/20 36/36/21
f 3/3/3 36/36/21 37/37/22
f 3/3/3 37/37/22 38/38/23
f 3/3/3 38/38/23 39/39/24
f 3/3/3 39/39/24 40/40/25
f 3/3/3 40/40/25 41/41/9
f 3/3/3 41/41/9 42/42/11
f 3/3/3 42/42/11 43/43/12
f 24/24/12 3/3/3 43/43/12
f 2/2/2 44/44/26 45/45/27
f 45/45/27 46/46/28 47/47/29
f 47/47/29 48/48/30 49/49/31
f 45/45/27 47/47/29 49/49/31
f 49/49/31 50/50/32 51/51/33
f 51/51/33 52/52/33 53/53/34
f 49/49/31 51/51/33 53/53/34
f 53/53/34 54/54/35 55/55/36
f 55/55/36 56/56/37 57/57/38
f 53/53/34 55/55/36 57/57/38
f 49/49/31 53/53/34 57/57/38
f 45/45/27 49/49/31 57/57/38
f 2/2/2 45/45/27 57/57/38
f 2/2/2 57/57/38 58/58/39
f 2/2/2 58/58/39 59/59/34
f 2/2/2 59/59/34 60/60/36
f 2/2/2 60/60/36 61/61/36
f 2/2/2 61/61/36 62/62/40
f 2/2/2 62/62/40 63/63/41
f 2/2/2 63/63/41 64/64/42
f 2/2/2 64/64/42 65/65/43
f 2/2/2 65/65/43 66/66/44
f 2/2/2 66/66/44 67/67/45
f 2/2/2 67/67/45 68/68/46
f 2/2/2 68/68/46 69/69/47
f 2/2/2 69/69/47 70/70/48
f 2/2/2 70/70/48 71/71/49
f 2/2/2 71/71/49 72/72/50
f 2/2/2 72/72/50 73/73/51
f 2/2/2 73/73/51 74/74/52
f 2/2/2 74/74/52 75/75/53
f 2/2/2 75/75/53 76/76/53
f 2/2/2 76/76/53 77/77/53
f 2/2/2 77/77/53 78/78/52
f 2/2/2 78/78/52 79/79/54
f 2/2/2 79/79/54 80/80/55
f 2/2/2 80/80/55 81/81/56
f 2/2/2 81/81/56 82/82/57
f 2/2/2 82/82/57 83/83/1
f 2/2/2 83/83/1 84/84/1
f 2/2/2 84/84/1 3/3/3
